<mxfile host="app.diagrams.net" agent="Mozilla/5.0 (X11; Linux x86_64) AppleWebKit/537.36 (KHTML, like Gecko) Chrome/126.0.0.0 Safari/537.36" version="24.7.7">
  <diagram name="Page-1" id="AnZotiG4S_KQEHY76fcx">
    <mxGraphModel dx="951" dy="494" grid="1" gridSize="10" guides="1" tooltips="1" connect="1" arrows="1" fold="1" page="1" pageScale="1" pageWidth="850" pageHeight="1100" math="0" shadow="0">
      <root>
        <mxCell id="0" />
        <mxCell id="1" parent="0" />
        <mxCell id="oN1n2G6w6r2Y6VqoaWqO-41" value="" style="endArrow=classic;html=1;rounded=0;exitX=1;exitY=0.75;exitDx=0;exitDy=0;" parent="1" source="oN1n2G6w6r2Y6VqoaWqO-73" edge="1">
          <mxGeometry relative="1" as="geometry">
            <mxPoint x="190" y="300.14" as="sourcePoint" />
            <mxPoint x="310" y="300.14" as="targetPoint" />
          </mxGeometry>
        </mxCell>
        <mxCell id="oN1n2G6w6r2Y6VqoaWqO-43" value="&lt;span style=&quot;text-align: right;&quot;&gt;SW14&lt;/span&gt;" style="edgeLabel;resizable=0;html=1;;align=left;verticalAlign=bottom;" parent="oN1n2G6w6r2Y6VqoaWqO-41" connectable="0" vertex="1">
          <mxGeometry x="-1" relative="1" as="geometry" />
        </mxCell>
        <mxCell id="oN1n2G6w6r2Y6VqoaWqO-69" value="Bin=8" style="edgeLabel;html=1;align=center;verticalAlign=middle;resizable=0;points=[];" parent="oN1n2G6w6r2Y6VqoaWqO-41" vertex="1" connectable="0">
          <mxGeometry x="-0.0032" y="-3" relative="1" as="geometry">
            <mxPoint y="-3" as="offset" />
          </mxGeometry>
        </mxCell>
        <mxCell id="oN1n2G6w6r2Y6VqoaWqO-54" value="" style="endArrow=classic;html=1;rounded=0;" parent="1" edge="1">
          <mxGeometry relative="1" as="geometry">
            <mxPoint x="190" y="269.45" as="sourcePoint" />
            <mxPoint x="310" y="269.45" as="targetPoint" />
          </mxGeometry>
        </mxCell>
        <mxCell id="oN1n2G6w6r2Y6VqoaWqO-55" value="Label" style="edgeLabel;resizable=0;html=1;;align=center;verticalAlign=middle;" parent="oN1n2G6w6r2Y6VqoaWqO-54" connectable="0" vertex="1">
          <mxGeometry relative="1" as="geometry" />
        </mxCell>
        <mxCell id="oN1n2G6w6r2Y6VqoaWqO-56" value="&lt;span style=&quot;text-align: right;&quot;&gt;SW15&lt;/span&gt;" style="edgeLabel;resizable=0;html=1;;align=left;verticalAlign=bottom;" parent="oN1n2G6w6r2Y6VqoaWqO-54" connectable="0" vertex="1">
          <mxGeometry x="-1" relative="1" as="geometry" />
        </mxCell>
        <mxCell id="oN1n2G6w6r2Y6VqoaWqO-67" value="Bin=4" style="edgeLabel;html=1;align=center;verticalAlign=middle;resizable=0;points=[];" parent="oN1n2G6w6r2Y6VqoaWqO-54" vertex="1" connectable="0">
          <mxGeometry x="0.0206" relative="1" as="geometry">
            <mxPoint x="-1" as="offset" />
          </mxGeometry>
        </mxCell>
        <mxCell id="oN1n2G6w6r2Y6VqoaWqO-58" value="" style="endArrow=classic;html=1;rounded=0;" parent="1" edge="1">
          <mxGeometry relative="1" as="geometry">
            <mxPoint x="190" y="235.79999999999998" as="sourcePoint" />
            <mxPoint x="310" y="235.79999999999998" as="targetPoint" />
          </mxGeometry>
        </mxCell>
        <mxCell id="oN1n2G6w6r2Y6VqoaWqO-59" value="Dec=2" style="edgeLabel;resizable=0;html=1;;align=center;verticalAlign=middle;" parent="oN1n2G6w6r2Y6VqoaWqO-58" connectable="0" vertex="1">
          <mxGeometry relative="1" as="geometry" />
        </mxCell>
        <mxCell id="oN1n2G6w6r2Y6VqoaWqO-60" value="&lt;span style=&quot;text-align: right;&quot;&gt;SW16&lt;/span&gt;" style="edgeLabel;resizable=0;html=1;;align=left;verticalAlign=bottom;" parent="oN1n2G6w6r2Y6VqoaWqO-58" connectable="0" vertex="1">
          <mxGeometry x="-1" relative="1" as="geometry" />
        </mxCell>
        <mxCell id="oN1n2G6w6r2Y6VqoaWqO-62" value="" style="endArrow=classic;html=1;rounded=0;" parent="1" edge="1">
          <mxGeometry relative="1" as="geometry">
            <mxPoint x="190" y="205.14" as="sourcePoint" />
            <mxPoint x="310" y="205" as="targetPoint" />
          </mxGeometry>
        </mxCell>
        <mxCell id="oN1n2G6w6r2Y6VqoaWqO-63" value="Hex1" style="edgeLabel;resizable=0;html=1;;align=center;verticalAlign=middle;" parent="oN1n2G6w6r2Y6VqoaWqO-62" connectable="0" vertex="1">
          <mxGeometry relative="1" as="geometry" />
        </mxCell>
        <mxCell id="oN1n2G6w6r2Y6VqoaWqO-64" value="&lt;span style=&quot;text-align: right;&quot;&gt;SW17&lt;/span&gt;" style="edgeLabel;resizable=0;html=1;;align=left;verticalAlign=bottom;" parent="oN1n2G6w6r2Y6VqoaWqO-62" connectable="0" vertex="1">
          <mxGeometry x="-1" relative="1" as="geometry" />
        </mxCell>
        <mxCell id="oN1n2G6w6r2Y6VqoaWqO-68" value="Dec=1" style="edgeLabel;html=1;align=center;verticalAlign=middle;resizable=0;points=[];" parent="oN1n2G6w6r2Y6VqoaWqO-62" vertex="1" connectable="0">
          <mxGeometry x="-0.0032" relative="1" as="geometry">
            <mxPoint as="offset" />
          </mxGeometry>
        </mxCell>
        <mxCell id="oN1n2G6w6r2Y6VqoaWqO-75" value="" style="group" parent="1" vertex="1" connectable="0">
          <mxGeometry x="50" y="149.99" width="140" height="200" as="geometry" />
        </mxCell>
        <mxCell id="oN1n2G6w6r2Y6VqoaWqO-73" value="" style="rounded=0;whiteSpace=wrap;html=1;" parent="oN1n2G6w6r2Y6VqoaWqO-75" vertex="1">
          <mxGeometry width="140" height="200" as="geometry" />
        </mxCell>
        <mxCell id="oN1n2G6w6r2Y6VqoaWqO-74" value="Chaves de entrada" style="text;html=1;align=center;verticalAlign=middle;whiteSpace=wrap;rounded=0;" parent="oN1n2G6w6r2Y6VqoaWqO-75" vertex="1">
          <mxGeometry x="40" y="85" width="60" height="30" as="geometry" />
        </mxCell>
        <mxCell id="oN1n2G6w6r2Y6VqoaWqO-82" value="" style="group" parent="1" vertex="1" connectable="0">
          <mxGeometry x="610" y="149.99" width="180" height="200" as="geometry" />
        </mxCell>
        <mxCell id="oN1n2G6w6r2Y6VqoaWqO-89" value="" style="group" parent="oN1n2G6w6r2Y6VqoaWqO-82" vertex="1" connectable="0">
          <mxGeometry width="180" height="200" as="geometry" />
        </mxCell>
        <mxCell id="oN1n2G6w6r2Y6VqoaWqO-10" value="" style="rounded=0;whiteSpace=wrap;html=1;" parent="oN1n2G6w6r2Y6VqoaWqO-89" vertex="1">
          <mxGeometry x="20" width="140" height="200" as="geometry" />
        </mxCell>
        <mxCell id="oN1n2G6w6r2Y6VqoaWqO-11" value="" style="verticalLabelPosition=bottom;shadow=0;dashed=0;align=center;html=1;verticalAlign=top;shape=mxgraph.electrical.opto_electronics.7_segment_display;pointerEvents=1;fillColor=#f8cecc;strokeColor=#b85450;" parent="oN1n2G6w6r2Y6VqoaWqO-89" vertex="1">
          <mxGeometry x="43.16999999999996" y="32.97999999999999" width="93.67" height="134.03" as="geometry" />
        </mxCell>
        <mxCell id="oN1n2G6w6r2Y6VqoaWqO-12" value="0" style="text;html=1;align=center;verticalAlign=middle;whiteSpace=wrap;rounded=0;" parent="oN1n2G6w6r2Y6VqoaWqO-89" vertex="1">
          <mxGeometry x="70" y="2.9799999999999898" width="60" height="30" as="geometry" />
        </mxCell>
        <mxCell id="oN1n2G6w6r2Y6VqoaWqO-14" value="2" style="text;html=1;align=center;verticalAlign=middle;whiteSpace=wrap;rounded=0;" parent="oN1n2G6w6r2Y6VqoaWqO-89" vertex="1">
          <mxGeometry x="110" y="120" width="60" height="30" as="geometry" />
        </mxCell>
        <mxCell id="oN1n2G6w6r2Y6VqoaWqO-15" value="3" style="text;html=1;align=center;verticalAlign=middle;whiteSpace=wrap;rounded=0;" parent="oN1n2G6w6r2Y6VqoaWqO-89" vertex="1">
          <mxGeometry x="50" y="167.01" width="60" height="30" as="geometry" />
        </mxCell>
        <mxCell id="oN1n2G6w6r2Y6VqoaWqO-18" value="4" style="text;html=1;align=center;verticalAlign=middle;whiteSpace=wrap;rounded=0;" parent="oN1n2G6w6r2Y6VqoaWqO-89" vertex="1">
          <mxGeometry y="115" width="60" height="30" as="geometry" />
        </mxCell>
        <mxCell id="oN1n2G6w6r2Y6VqoaWqO-19" value="5" style="text;html=1;align=center;verticalAlign=middle;whiteSpace=wrap;rounded=0;" parent="oN1n2G6w6r2Y6VqoaWqO-89" vertex="1">
          <mxGeometry x="10" y="50" width="60" height="30" as="geometry" />
        </mxCell>
        <mxCell id="oN1n2G6w6r2Y6VqoaWqO-20" value="6" style="text;html=1;align=center;verticalAlign=middle;whiteSpace=wrap;rounded=0;" parent="oN1n2G6w6r2Y6VqoaWqO-89" vertex="1">
          <mxGeometry x="60" y="66" width="60" height="30" as="geometry" />
        </mxCell>
        <mxCell id="oN1n2G6w6r2Y6VqoaWqO-88" value="1" style="text;html=1;align=center;verticalAlign=middle;whiteSpace=wrap;rounded=0;" parent="oN1n2G6w6r2Y6VqoaWqO-89" vertex="1">
          <mxGeometry x="120" y="60.00999999999999" width="60" height="30" as="geometry" />
        </mxCell>
        <mxCell id="oN1n2G6w6r2Y6VqoaWqO-90" value="" style="endArrow=classic;html=1;rounded=0;" parent="1" edge="1">
          <mxGeometry relative="1" as="geometry">
            <mxPoint x="510" y="260" as="sourcePoint" />
            <mxPoint x="630" y="260" as="targetPoint" />
          </mxGeometry>
        </mxCell>
        <mxCell id="oN1n2G6w6r2Y6VqoaWqO-93" value="Hex0[3]" style="edgeLabel;resizable=0;html=1;;align=right;verticalAlign=bottom;" parent="oN1n2G6w6r2Y6VqoaWqO-90" connectable="0" vertex="1">
          <mxGeometry x="1" relative="1" as="geometry" />
        </mxCell>
        <mxCell id="oN1n2G6w6r2Y6VqoaWqO-94" value="" style="endArrow=classic;html=1;rounded=0;" parent="1" edge="1">
          <mxGeometry relative="1" as="geometry">
            <mxPoint x="510" y="220" as="sourcePoint" />
            <mxPoint x="630" y="220" as="targetPoint" />
          </mxGeometry>
        </mxCell>
        <mxCell id="oN1n2G6w6r2Y6VqoaWqO-97" value="Hex0[2]" style="edgeLabel;resizable=0;html=1;;align=right;verticalAlign=bottom;" parent="oN1n2G6w6r2Y6VqoaWqO-94" connectable="0" vertex="1">
          <mxGeometry x="1" relative="1" as="geometry" />
        </mxCell>
        <mxCell id="oN1n2G6w6r2Y6VqoaWqO-98" value="" style="endArrow=classic;html=1;rounded=0;" parent="1" edge="1">
          <mxGeometry relative="1" as="geometry">
            <mxPoint x="510" y="200" as="sourcePoint" />
            <mxPoint x="630" y="200" as="targetPoint" />
          </mxGeometry>
        </mxCell>
        <mxCell id="oN1n2G6w6r2Y6VqoaWqO-101" value="Hex0[1]" style="edgeLabel;resizable=0;html=1;;align=right;verticalAlign=bottom;" parent="oN1n2G6w6r2Y6VqoaWqO-98" connectable="0" vertex="1">
          <mxGeometry x="1" relative="1" as="geometry" />
        </mxCell>
        <mxCell id="oN1n2G6w6r2Y6VqoaWqO-102" value="" style="endArrow=classic;html=1;rounded=0;" parent="1" edge="1">
          <mxGeometry relative="1" as="geometry">
            <mxPoint x="510" y="180" as="sourcePoint" />
            <mxPoint x="630" y="180" as="targetPoint" />
          </mxGeometry>
        </mxCell>
        <mxCell id="oN1n2G6w6r2Y6VqoaWqO-105" value="Hex0[0]" style="edgeLabel;resizable=0;html=1;;align=right;verticalAlign=bottom;" parent="oN1n2G6w6r2Y6VqoaWqO-102" connectable="0" vertex="1">
          <mxGeometry x="1" relative="1" as="geometry" />
        </mxCell>
        <mxCell id="oN1n2G6w6r2Y6VqoaWqO-106" value="" style="endArrow=classic;html=1;rounded=0;" parent="1" edge="1">
          <mxGeometry relative="1" as="geometry">
            <mxPoint x="510" y="290" as="sourcePoint" />
            <mxPoint x="630" y="290" as="targetPoint" />
          </mxGeometry>
        </mxCell>
        <mxCell id="oN1n2G6w6r2Y6VqoaWqO-109" value="Hex0[4]" style="edgeLabel;resizable=0;html=1;;align=right;verticalAlign=bottom;" parent="oN1n2G6w6r2Y6VqoaWqO-106" connectable="0" vertex="1">
          <mxGeometry x="1" relative="1" as="geometry" />
        </mxCell>
        <mxCell id="oN1n2G6w6r2Y6VqoaWqO-110" value="" style="endArrow=classic;html=1;rounded=0;" parent="1" edge="1">
          <mxGeometry relative="1" as="geometry">
            <mxPoint x="510" y="310" as="sourcePoint" />
            <mxPoint x="630" y="310" as="targetPoint" />
          </mxGeometry>
        </mxCell>
        <mxCell id="oN1n2G6w6r2Y6VqoaWqO-113" value="Hex0[5]" style="edgeLabel;resizable=0;html=1;;align=right;verticalAlign=bottom;" parent="oN1n2G6w6r2Y6VqoaWqO-110" connectable="0" vertex="1">
          <mxGeometry x="1" relative="1" as="geometry" />
        </mxCell>
        <mxCell id="oN1n2G6w6r2Y6VqoaWqO-114" value="" style="endArrow=classic;html=1;rounded=0;" parent="1" edge="1">
          <mxGeometry relative="1" as="geometry">
            <mxPoint x="510" y="330" as="sourcePoint" />
            <mxPoint x="630" y="330" as="targetPoint" />
          </mxGeometry>
        </mxCell>
        <mxCell id="oN1n2G6w6r2Y6VqoaWqO-117" value="Hex0[6]" style="edgeLabel;resizable=0;html=1;;align=right;verticalAlign=bottom;" parent="oN1n2G6w6r2Y6VqoaWqO-114" connectable="0" vertex="1">
          <mxGeometry x="1" relative="1" as="geometry" />
        </mxCell>
        <mxCell id="oN1n2G6w6r2Y6VqoaWqO-120" value="" style="group" parent="1" vertex="1" connectable="0">
          <mxGeometry x="310" y="152.98" width="200" height="200.00000000000003" as="geometry" />
        </mxCell>
        <mxCell id="oN1n2G6w6r2Y6VqoaWqO-1" value="" style="whiteSpace=wrap;html=1;aspect=fixed;" parent="oN1n2G6w6r2Y6VqoaWqO-120" vertex="1">
          <mxGeometry width="200" height="200" as="geometry" />
        </mxCell>
        <mxCell id="oN1n2G6w6r2Y6VqoaWqO-119" value="Processamento das entradas em VHDL" style="text;html=1;align=center;verticalAlign=middle;whiteSpace=wrap;rounded=0;" parent="oN1n2G6w6r2Y6VqoaWqO-120" vertex="1">
          <mxGeometry x="70" y="82.01000000000002" width="60" height="30" as="geometry" />
        </mxCell>
      </root>
    </mxGraphModel>
  </diagram>
</mxfile>
